# xmcd CD database file
#
# Track frame offsets:
#	150
#	4287
#	21720
#	41181
#	61732
#	81964
#	102813
#	126458
#	128477
#	142156
#	162263
#	164144
#	187482
#	208358
#	227239
#	250457
#
# Disc length: 3987 seconds
#
# Revision: 0
# Processed by: cddbd v1.5.2PL0 Copyright (c) Steve Scherf et al.
# Submitted via: CDex 1.70beta3
#
DISCID=fe0f9110
DTITLE=SPEED - just kiddin'
DYEAR=2013
DGENRE=VISION FACTORY
TTITLE0=Introduction - just kiddin'
TTITLE1=Monster
TTITLE2=LOVE in your HANDS!
TTITLE3=One more time
TTITLE4=アイのうた
TTITLE5=青空へ続くように・・・
TTITLE6=なんくるないさぁ
TTITLE7=Interlude - just kiddin' Ⅰ
TTITLE8=はなかっパレード
TTITLE9=はなかっパラダイス
TTITLE10=Interlude - just kiddin' Ⅱ
TTITLE11=Rainy
TTITLE12=Planet Earth
TTITLE13=Be Alright
TTITLE14=embrace
TTITLE15=グリーンスムージー
EXTD=YEAR: 2013
EXTT0=
EXTT1=
EXTT2=
EXTT3=
EXTT4=
EXTT5=
EXTT6=
EXTT7=
EXTT8=
EXTT9=
EXTT10=
EXTT11=
EXTT12=
EXTT13=
EXTT14=
EXTT15=
PLAYORDER=
